<?xml version="1.0" encoding="utf-8" standalone="no"?>
<!DOCTYPE svg PUBLIC "-//W3C//DTD SVG 1.1//EN"
  "http://www.w3.org/Graphics/SVG/1.1/DTD/svg11.dtd">
<!-- Created with matplotlib (http://matplotlib.org/) -->
<svg height="432pt" version="1.1" viewBox="0 0 576 432" width="576pt" xmlns="http://www.w3.org/2000/svg" xmlns:xlink="http://www.w3.org/1999/xlink">
 <defs>
  <style type="text/css">
*{stroke-linecap:butt;stroke-linejoin:round;}
  </style>
 </defs>
 <g id="figure_1">
  <g id="patch_1">
   <path d="
M0 432
L576 432
L576 0
L0 0
z
" style="fill:#ffffff;"/>
  </g>
  <g id="axes_1">
   <g id="line2d_1">
    <path clip-path="url(#p23ab9b749c)" d="
M421.92 216
L421.601 208.403
L420.649 200.87
L419.072 193.463
L416.889 186.245
L414.122 179.274
L410.8 172.608
L406.961 166.298
L402.643 160.395
L397.893 154.941
L392.76 149.976
L387.299 145.533
L381.567 141.639
L375.622 138.314
L369.527 135.574
L363.342 133.424
L357.132 131.867
L350.957 130.896
L344.878 130.499
L338.954 130.655
L333.242 131.34
L327.794 132.523
L322.66 134.166
L317.883 136.227
L313.504 138.661
L309.556 141.417
L306.067 144.442
L303.06 147.678
L300.549 151.069
L298.545 154.554
L297.049 158.075
L296.056 161.571
L295.556 164.984
L295.532 168.257
L295.958 171.336
L296.807 174.17
L298.042 176.712
L299.623 178.917
L301.505 180.748
L303.641 182.172
L305.976 183.162
L308.457 183.697
L311.027 183.762
L313.626 183.349
L316.197 182.456
L318.681 181.088
L321.019 179.258
L323.156 176.982
L325.038 174.287
L326.613 171.202
L327.836 167.764
L328.661 164.013
L329.052 159.995
L328.976 155.761
L328.405 151.364
L327.318 146.86
L325.701 142.309
L323.546 137.768
L320.85 133.301
L317.619 128.967
L313.866 124.825
L309.608 120.936
L304.87 117.354
L299.684 114.134
L294.086 111.324
L288.119 108.972
L281.828 107.116
L275.266 105.795
L268.487 105.036
L261.55 104.865
L254.515 105.299
L247.444 106.348
L240.4 108.018
L233.446 110.305
L226.646 113.2
L220.06 116.688
L213.748 120.746
L207.767 125.344
L202.171 130.448
L197.009 136.019
L192.325 142.009
L188.16 148.371
L184.549 155.048
L181.518 161.986
L179.091 169.123
L177.282 176.397
L176.101 183.746
L175.549 191.106
L175.622 198.413
L176.308 205.606
L177.588 212.624
L179.439 219.407
L181.83 225.902
L184.724 232.057
L188.079 237.824
L191.851 243.162
L195.987 248.034
L200.435 252.409
L205.138 256.261
L210.035 259.572
L215.068 262.331
L220.174 264.532
L225.292 266.176
L230.362 267.272
L235.325 267.836
L240.124 267.887
L244.705 267.453
L249.017 266.567
L253.014 265.268
L256.654 263.598
L259.901 261.606
L262.724 259.341
L265.098 256.858
L267.004 254.214
L268.43 251.466
L269.371 248.673
L269.827 245.894
L269.806 243.189
L269.323 240.613
L268.398 238.223
L267.059 236.07
L265.337 234.203
L263.27 232.669
L260.901 231.506
L258.278 230.751
L255.45 230.434
L252.472 230.578
L249.401 231.201
L246.294 232.315
L243.21 233.925
L240.209 236.027
L237.35 238.615
L234.69 241.672
L232.286 245.177
L230.189 249.103
L228.452 253.415
L227.118 258.074
L226.231 263.036
L225.825 268.254
L225.933 273.673
L226.58 279.24
L227.784 284.894
L229.557 290.576
L231.906 296.225
L234.829 301.778
L238.319 307.175
L242.361 312.353
L246.935 317.256
L252.012 321.825
L257.56 326.008
L263.539 329.756
L269.906 333.023
L276.612 335.77
L283.602 337.961
L290.822 339.568
L298.212 340.569
L305.709 340.946
L313.252 340.69
L320.776 339.799
L328.217 338.277
L335.514 336.134
L342.603 333.388
L349.427 330.063
L355.929 326.19
L362.056 321.803
L367.759 316.945
L372.996 311.662
L377.726 306.004
L381.919 300.025
L385.546 293.784
L388.587 287.34
L391.028 280.755
L392.863 274.092
L394.091 267.413
L394.719 260.78
L394.759 254.256
L394.231 247.898
L393.162 241.765
L391.582 235.909
L389.53 230.379
L387.048 225.22
L384.182 220.473
L380.983 216.17
L377.505 212.342
L373.805 209.01
L369.942 206.189
L365.975 203.889
L361.965 202.113
L357.971 200.856
L354.052 200.107
L350.267 199.849
L346.669 200.059
L343.31 200.706
L340.238 201.756
L337.497 203.168
L335.126 204.898
L333.157 206.898
L331.619 209.114
L330.532 211.493
L329.913 213.976
L329.77 216.507
L330.104 219.026
L330.911 221.475
L332.181 223.795
L333.894 225.931
L336.028 227.829
L338.551 229.438
L341.43 230.71
L344.622 231.604
L348.082 232.079
L351.762 232.105
L355.607 231.653
L359.562 230.703
L363.57 229.239
L367.57 227.253
L371.503 224.745
L375.308 221.718
L378.926 218.185
L382.299 214.164
L385.371 209.68
L388.089 204.764
L390.405 199.451
L392.273 193.785
L393.653 187.812
L394.509 181.582
L394.812 175.151
L394.539 168.576
L393.673 161.918
L392.202 155.237
L390.124 148.598
L387.442 142.062
L384.164 135.691
L380.308 129.548
L375.897 123.691
L370.96 118.177
L365.532 113.058
L359.653 108.383
L353.37 104.197
L346.733 100.539
L339.796 97.4425
L332.617 94.9354
L325.255 93.0391
L317.773 91.7684
L310.233 91.1315
L302.701 91.1297
L295.239 91.7575
L287.911 93.0028
L280.775 94.8466
L273.892 97.2638
L267.316 100.223
L261.098 103.688
L255.287 107.615
L249.923 111.959
L245.043 116.668
L240.679 121.688
L236.856 126.961
L233.591 132.427
L230.897 138.026
L228.779 143.696
L227.234 149.375
L226.255 155.001
L225.827 160.515
L225.928 165.86
L226.53 170.982
L227.6 175.829
L229.101 180.354
L230.988 184.516
L233.213 188.277
L235.726 191.606
L238.473 194.477
L241.396 196.872
L244.437 198.779
L247.537 200.19
L250.637 201.106
L253.678 201.536
L256.602 201.493
L259.355 200.998
L261.882 200.076
L264.135 198.76
L266.069 197.087
L267.642 195.101
L268.82 192.847
L269.571 190.376
L269.871 187.741
L269.702 185
L269.053 182.208
L267.918 179.427
L266.299 176.713
L264.204 174.126
L261.648 171.724
L258.652 169.562
L255.243 167.692
L251.456 166.165
L247.327 165.027
L242.902 164.318
L238.228 164.074
L233.357 164.327
L228.344 165.101
L223.247 166.415
L218.126 168.282
L213.042 170.706
L208.056 173.687
L203.23 177.216
L198.622 181.28
L194.292 185.857
L190.296 190.919
L186.685 196.433
L183.508 202.361
L180.811 208.658
L178.632 215.275
L177.006 222.159
L175.961 229.253
L175.518 236.499
L175.694 243.835
L176.498 251.199
L177.93 258.525
L179.988 265.752
L182.659 272.817
L185.925 279.657
L189.762 286.215
L194.139 292.434
L199.019 298.262
L204.36 303.652
L210.116 308.558
L216.236 312.944
L222.664 316.777
L229.343 320.03
L236.213 322.684
L243.21 324.725
L250.273 326.146
L257.337 326.948
L264.34 327.138
L271.221 326.73
L277.92 325.743
L284.38 324.204
L290.547 322.145
L296.372 319.604
L301.81 316.625
L306.821 313.254
L311.37 309.542
L315.429 305.545
L318.975 301.32
L321.993 296.925
L324.473 292.421
L326.413 287.869
L327.816 283.329
L328.694 278.861
L329.064 274.522
L328.95 270.369
L328.381 266.452
L327.392 262.821
L326.023 259.519
L324.319 256.586
L322.329 254.056
L320.105 251.956
L317.702 250.309
L315.176 249.13
L312.587 248.428
L309.992 248.207
L307.451 248.461
L305.021 249.18
L302.759 250.347
L300.719 251.937
L298.952 253.922
L297.504 256.267
L296.419 258.931
L295.735 261.869
L295.486 265.032
L295.698 268.368
L296.393 271.821
L297.586 275.334
L299.286 278.847
L301.493 282.302
L304.204 285.638
L307.406 288.797
L311.081 291.72
L315.205 294.354
L319.748 296.645
L324.673 298.544
L329.939 300.008
L335.498 300.995
L341.301 301.473
L347.294 301.41
L353.418 300.785
L359.615 299.581
L365.823 297.787
L371.979 295.401
L378.021 292.425
L383.888 288.871
L389.519 284.754
L394.856 280.099
L399.841 274.934
L404.424 269.295
L408.556 263.224
L412.193 256.766
L415.297 249.971
L417.834 242.894
L419.777 235.594
L421.105 228.129
L421.805 220.562
L421.869 212.958
L421.296 205.378
L420.092 197.888
L418.27 190.55
L415.85 183.424
L412.858 176.568
L409.325 170.038
L405.288 163.886
L400.792 158.157
L395.882 152.895
L390.612 148.135
L385.035 143.908
L379.211 140.24
L373.199 137.147
L367.06 134.643
L360.858 132.731
L354.654 131.409
L348.51 130.669
L342.487 130.496
L336.641 130.867
L331.028 131.755
L325.7 133.127
L320.704 134.943
L316.082 137.159
L311.871 139.728
L308.104 142.598
L304.805 145.714
L301.995 149.019
L299.687 152.455
L297.886 155.962
L296.592 159.48
L295.798 162.949
L295.491 166.313
L295.65 169.515
L296.249 172.502
L297.256 175.224
L298.635 177.636
L300.342 179.696
L302.332 181.368
L304.554 182.622
L306.954 183.432
L309.478 183.78
L312.066 183.654
L314.662 183.049
L317.205 181.965
L319.637 180.41
L321.902 178.4
L323.943 175.953
L325.708 173.098
L327.147 169.867
L328.216 166.298
L328.872 162.435
L329.08 158.325
L328.808 154.019
L328.033 149.572
L326.736 145.042
L324.904 140.488
L322.532 135.969
L319.622 131.548
L316.18 127.284
L312.222 123.236
L307.769 119.463
L302.848 116.02
L297.492 112.958
L291.741 110.326
L285.638 108.168
L279.233 106.522
L272.577 105.422
L265.728 104.896
L258.745 104.965
L251.687 105.644
L244.619 106.941
L237.604 108.859
L230.704 111.391
L223.982 114.526
L217.499 118.244
L211.313 122.522
L205.48 127.327
L200.051 132.623
L195.076 138.367
L190.595 144.512
L186.648 151.007
L183.265 157.796
L180.474 164.82
L178.292 172.019
L176.734 179.331
L175.805 186.692
L175.504 194.039
L175.823 201.308
L176.75 208.438
L178.262 215.368
L180.333 222.043
L182.929 228.408
L186.013 234.413
L189.541 240.013
L193.465 245.169
L197.732 249.845
L202.289 254.013
L207.076 257.651
L212.035 260.742
L217.105 263.278
L222.223 265.256
L227.329 266.68
L232.364 267.561
L237.268 267.916
L241.985 267.77
L246.465 267.151
L250.656 266.095
L254.515 264.642
L258.002 262.837
L261.083 260.729
L263.729 258.371
L265.917 255.816
L267.633 253.124
L268.865 250.351
L269.611 247.556
L269.875 244.8
L269.667 242.14
L269.005 239.632
L267.911 237.33
L266.414 235.286
L264.549 233.547
L262.356 232.157
L259.88 231.154
L257.168 230.57
L254.274 230.435
L251.252 230.769
L248.159 231.588
L245.054 232.9
L241.996 234.707
L239.045 237.005
L236.259 239.783
L233.695 243.022
L231.407 246.699
L229.449 250.783
L227.867 255.239
L226.708 260.025
L226.009 265.096
L225.805 270.4
L226.126 275.886
L226.994 281.494
L228.424 287.167
L230.427 292.843
L233.006 298.461
L236.158 303.959
L239.871 309.276
L244.128 314.351
L248.907 319.126
L254.177 323.547
L259.902 327.562
L266.042 331.123
L272.551 334.187
L279.377 336.715
L286.466 338.676
L293.761 340.042
L301.201 340.795
L308.724 340.92
L316.267 340.41
L323.766 339.265
L331.157 337.493
L338.378 335.107
L345.368 332.126
L352.07 328.578
L358.427 324.495
L364.391 319.914
L369.912 314.88
L374.951 309.441
L379.47 303.648
L383.438 297.557
L386.833 291.228
L389.636 284.72
L391.835 278.096
L393.427 271.418
L394.414 264.751
L394.804 258.154
L394.615 251.689
L393.867 245.415
L392.589 239.386
L390.816 233.655
L388.586 228.268
L385.944 223.27
L382.939 218.697
L379.622 214.581
L376.048 210.949
L372.276 207.819
L368.364 205.206
L364.373 203.116
L360.362 201.549
L356.391 200.496
L352.519 199.946
L348.802 199.878
L345.294 200.267
L342.044 201.079
L339.1 202.279
L336.502 203.825
L334.288 205.669
L332.489 207.761
L331.129 210.049
L330.228 212.477
L329.798 214.986
L329.846 217.519
L330.371 220.017
L331.365 222.421
L332.814 224.675
L334.699 226.722
L336.992 228.51
L339.662 229.99
L342.671 231.115
L345.976 231.846
L349.531 232.145
L353.283 231.983
L357.179 231.334
L361.163 230.179
L365.174 228.508
L369.155 226.313
L373.044 223.596
L376.781 220.365
L380.308 216.634
L383.567 212.424
L386.504 207.763
L389.067 202.684
L391.209 197.225
L392.886 191.43
L394.06 185.348
L394.698 179.031
L394.773 172.535
L394.264 165.92
L393.157 159.245
L391.444 152.573
L389.123 145.967
L386.201 139.49
L382.69 133.204
L378.609 127.168
L373.983 121.442
L368.845 116.079
L363.232 111.132
L357.186 106.648
L350.755 102.668
L343.991 99.2313
L336.95 96.3676
L329.69 94.1026
L322.273 92.4551
L314.76 91.4373
L307.216 91.0547
L299.705 91.3058
L292.289 92.1824
L285.03 93.6697
L277.989 95.7463
L271.222 98.3845
L264.783 101.551
L258.723 105.206
L253.085 109.306
L247.911 113.802
L243.234 118.642
L239.084 123.77
L235.482 129.128
L232.445 134.655
L229.981 140.289
L228.092 145.97
L226.776 151.635
L226.019 157.223
L225.805 162.677
L226.11 167.939
L226.904 172.956
L228.151 177.68
L229.812 182.065
L231.84 186.07
L234.187 189.662
L236.8 192.81
L239.624 195.493
L242.601 197.694
L245.673 199.402
L248.781 200.615
L251.864 201.336
L254.865 201.575
L257.727 201.348
L260.395 200.678
L262.819 199.595
L264.95 198.131
L266.744 196.328
L268.163 194.229
L269.173 191.881
L269.746 189.339
L269.86 186.654
L269.5 183.886
L268.657 181.091
L267.328 178.33
L265.517 175.66
L263.236 173.14
L260.501 170.827
L257.336 168.776
L253.772 167.038
L249.843 165.661
L245.59 164.689
L241.059 164.162
L236.3 164.114
L231.365 164.573
L226.312 165.561
L221.198 167.095
L216.085 169.184
L211.033 171.832
L206.103 175.033
L201.357 178.779
L196.854 183.05
L192.651 187.825
L188.802 193.072
L185.359 198.757
L182.37 204.838
L179.875 211.269
L177.914 217.999
L176.517 224.974
L175.71 232.137
L175.514 239.426
L175.94 246.781
L176.995 254.137
L178.679 261.432
L180.984 268.601
L183.895 275.583
L187.393 282.317
L191.45 288.746
L196.032 294.815
L201.102 300.473
L206.616 305.674
L212.524 310.377
L218.774 314.545
L225.309 318.149
L232.072 321.164
L239 323.574
L246.031 325.368
L253.102 326.541
L260.149 327.097
L267.111 327.046
L273.926 326.403
L280.536 325.192
L286.885 323.441
L292.921 321.184
L298.596 318.463
L303.868 315.321
L308.698 311.807
L313.054 307.975
L316.91 303.879
L320.246 299.579
L323.05 295.133
L325.314 290.602
L327.038 286.048
L328.23 281.53
L328.902 277.107
L329.075 272.836
L328.775 268.771
L328.034 264.963
L326.888 261.458
L325.379 258.3
L323.555 255.524
L321.465 253.163
L319.162 251.242
L316.703 249.78
L314.145 248.792
L311.546 248.282
L308.966 248.252
L306.463 248.694
L304.093 249.594
L301.914 250.933
L299.977 252.686
L298.332 254.819
L297.024 257.297
L296.095 260.076
L295.582 263.11
L295.514 266.348
L295.917 269.738
L296.81 273.222
L298.205 276.742
L300.108 280.24
L302.517 283.654
L305.426 286.926
L308.82 289.998
L312.679 292.812
L316.974 295.314
L321.674 297.454
L326.741 299.184
L332.13 300.462
L337.793 301.249
L343.679 301.514
L349.731 301.229
L355.892 300.373
L362.1 298.934
L368.295 296.904
L374.413 294.281
L380.393 291.072
L386.172 287.291
L391.692 282.955
L396.895 278.092
L401.726 272.733
L406.134 266.916
L410.073 260.684
L413.501 254.085
L416.381 247.171
L418.683 239.998
L420.383 232.624
L421.461 225.111
L421.907 217.521
L421.716 209.919
L420.889 202.368
L419.437 194.931
L417.373 187.67
L414.72 180.646
L411.507 173.914
L407.768 167.529
L403.542 161.541
L398.875 155.994
L393.815 150.928
L388.415 146.378
L382.732 142.373
L376.825 138.933
L370.755 136.075
L364.583 133.807
L358.373 132.132
L352.186 131.044
L346.083 130.533
L340.124 130.581
L334.365 131.162
L328.86 132.248
L323.659 133.802
L318.808 135.784
L314.346 138.147
L310.309 140.843
L306.727 143.818
L303.622 147.017
L301.011 150.381
L298.905 153.853
L297.308 157.371
L296.215 160.877
L295.618 164.311
L295.5 167.616
L295.838 170.739
L296.605 173.625
L297.766 176.229
L299.281 178.505
L301.107 180.413
L303.196 181.922
L305.496 183
L307.952 183.628
L310.509 183.787
L313.107 183.47
L315.688 182.673
L318.194 181.399
L320.566 179.66
L322.748 177.472
L324.685 174.858
L326.325 171.849
L327.622 168.478
L328.53 164.786
L329.01 160.818
L329.03 156.623
L328.56 152.254
L327.578 147.767
L326.068 143.22
L324.02 138.673
L321.432 134.186
L318.308 129.82
L314.658 125.635
L310.499 121.691
L305.855 118.043
L300.756 114.746
L295.237 111.851
L289.339 109.403
L283.11 107.446
L276.598 106.015
L269.858 105.141
L262.948 104.851
L255.927 105.163
L248.858 106.089
L241.803 107.634
L234.827 109.798
L227.99 112.573
L221.357 115.944
L214.986 119.89
L208.934 124.383
L203.257 129.389
L198.004 134.87
L193.222 140.78
L188.95 147.071
L185.225 153.69
L182.076 160.58
L179.527 167.682
L177.594 174.934
L176.287 182.273
L175.609 189.636
L175.558 196.959
L176.122 204.18
L177.286 211.237
L179.025 218.072
L181.31 224.629
L184.107 230.856
L187.374 236.704
L191.066 242.131
L195.133 247.099
L199.524 251.575
L204.18 255.533
L209.043 258.954
L214.053 261.824
L219.149 264.136
L224.27 265.891
L229.355 267.096
L234.344 267.765
L239.18 267.916
L243.809 267.577
L248.178 266.779
L252.242 265.559
L255.957 263.96
L259.285 262.028
L262.195 259.813
L264.66 257.369
L266.661 254.753
L268.184 252.021
L269.221 249.232
L269.774 246.446
L269.848 243.721
L269.456 241.115
L268.617 238.683
L267.358 236.479
L265.71 234.551
L263.709 232.947
L261.397 231.707
L258.82 230.868
L256.029 230.461
L253.077 230.511
L250.02 231.038
L246.915 232.053
L243.822 233.563
L240.8 235.568
L237.908 238.059
L235.203 241.024
L232.743 244.442
L230.582 248.286
L228.768 252.523
L227.351 257.116
L226.371 262.022
L225.866 267.192
L225.869 272.576
L226.407 278.117
L227.498 283.759
L229.156 289.441
L231.39 295.101
L234.199 300.678
L237.576 306.111
L241.509 311.338
L245.979 316.3
L250.958 320.94
L256.414 325.205
L262.311 329.044
L268.604 332.41
L275.246 335.264
L282.184 337.569
L289.363 339.295
L296.723 340.418
L304.204 340.921
L311.743 340.792
L319.276 340.028
L326.739 338.631
L334.069 336.611
L341.205 333.985
L348.086 330.773
L354.657 327.007
L360.863 322.72
L366.655 317.952
L371.988 312.75
L376.822 307.163
L381.125 301.244
L384.866 295.051
L388.026 288.643
L390.588 282.081
L392.545 275.428
L393.894 268.747
L394.641 262.1
L394.797 255.549
L394.381 249.154
L393.418 242.971
L391.937 237.055
L389.977 231.456
L387.576 226.22
L384.783 221.388
L381.646 216.994
L378.22 213.069
L374.56 209.636
L370.725 206.712
L366.774 204.308
L362.767 202.427
L358.765 201.066
L354.827 200.217
L351.011 199.863
L347.371 199.981
L343.96 200.543
L340.828 201.515
L338.017 202.859
L335.569 204.529
L333.517 206.479
L331.891 208.656
L330.713 211.007
L329.999 213.474
L329.76 216
L329.76 216" style="fill:none;stroke:#0077cc;stroke-linecap:round;"/>
   </g>
  </g>
 </g>
 <defs>
  <clipPath id="p23ab9b749c">
   <rect height="345.6" width="345.6" x="122.4" y="43.2"/>
  </clipPath>
 </defs>
</svg>
